<svg xmlns="http://www.w3.org/2000/svg" viewBox="0 0 203.9 158.13"><defs><style>.cls-1,.cls-3{fill:#fff;}.cls-2{fill:#35e661;}.cls-2,.cls-3{stroke:#35e661;stroke-miterlimit:10;stroke-width:2px;}.cls-4{fill:#4f4f4f;}</style></defs><title>logo0</title><g id="Слой_2" data-name="Слой 2"><g id="Слой_1-2" data-name="Слой 1"><path class="cls-1" d="M86.72,158.13a105.2,105.2,0,0,1-21.13-2,87.92,87.92,0,0,1-24.16-8.58,79.77,79.77,0,0,1-16.95-12.16,77.12,77.12,0,0,1-12.12-14.72A79.81,79.81,0,0,1,5,105.88,78,78,0,0,1,.73,88.67,76.67,76.67,0,0,1,.56,68.88,74,74,0,0,1,5.33,50.43,75,75,0,0,1,26.84,20.58,80.27,80.27,0,0,1,41,11a92.35,92.35,0,0,1,15.6-6.45A97.83,97.83,0,0,1,75.72.68C78.49.41,82.58.22,84.79.14,86.18.09,87.55,0,88.65,0c.73,0,1.26,0,1.65,0a131.57,131.57,0,0,1,22,2,137,137,0,0,1,25.34,6.72c5.36,2,10.6,4.26,15.57,6.68a119,119,0,0,1,23.47,15A99.38,99.38,0,0,1,188.9,42.24a71.81,71.81,0,0,1,9.19,13.46,49.42,49.42,0,0,1,5.56,17.57,43.39,43.39,0,0,1-1.56,17.07,62.36,62.36,0,0,1-10.46,20,94.94,94.94,0,0,1-14.5,15.14,123.6,123.6,0,0,1-16.63,11.85,146,146,0,0,1-21.6,10.59,152,152,0,0,1-21.06,6.57,138.39,138.39,0,0,1-28.95,3.65Z"/><path class="cls-2" d="M62.35,59.61H38.28v2.08H62.35Z"/><path class="cls-2" d="M62.35,67.73H38.28v2.08H62.35Z"/><path class="cls-2" d="M62.35,75.9H38.28V78H62.35Z"/><path class="cls-2" d="M122.7,59.61H98.63v2.08H122.7Z"/><path class="cls-2" d="M122.7,67.73H98.63v2.08H122.7Z"/><path class="cls-2" d="M122.7,75.9H98.63V78H122.7Z"/><path class="cls-3" d="M71.39,58.07v21.3L89.83,68.72ZM73.06,61l13.41,7.74L73.06,76.46Z"/><path class="cls-3" d="M165.62,58l-17,9.8-17-9.8V79.57l17-9.79,17,9.79ZM133.38,76.63V61L147,68.8Zm30.54,0L150.35,68.8,163.92,61Z"/><path class="cls-4" d="M55.93,91.62a3.88,3.88,0,0,1,2.56.78,2.92,2.92,0,0,1,0,4.29,3.88,3.88,0,0,1-2.56.78H53.85V100h-1.2v-8.4Zm0,4.81A2.73,2.73,0,0,0,57.63,96a1.72,1.72,0,0,0,.6-1.4,1.69,1.69,0,0,0-.6-1.4,2.73,2.73,0,0,0-1.74-.49h-2v3.77Zm15.27,1.49H66.7l-.93,2.1H64.54l3.8-8.4h1.19l3.82,8.4H72.09Zm-.42-1-1.81-4.12L67.12,97ZM85.26,100l-1.82-2.58-.52,0H80.84V100h-1.2v-8.4h3.28a3.88,3.88,0,0,1,2.56.78,2.62,2.62,0,0,1,.94,2.15,2.79,2.79,0,0,1-.48,1.65,2.72,2.72,0,0,1-1.37,1l2,2.82Zm-2.38-3.58A2.67,2.67,0,0,0,84.62,96a1.72,1.72,0,0,0,.6-1.4,1.69,1.69,0,0,0-.6-1.4,2.73,2.73,0,0,0-1.74-.49h-2v3.78ZM95,92.66H92.07v-1h7v1H96.14V100H95Zm17.64-1V100h-1l-5-6.27V100h-1.2v-8.4h1l5,6.26V91.62ZM126.24,99v1h-6.1v-8.4h5.93v1h-4.73v2.58h4.21v1h-4.21V99Zm12.6,1L137,97.44l-.53,0h-2.08V100h-1.2v-8.4h3.28a3.9,3.9,0,0,1,2.57.78,2.65,2.65,0,0,1,.93,2.15,2.79,2.79,0,0,1-.48,1.65,2.68,2.68,0,0,1-1.37,1l2,2.82Zm-2.38-3.58A2.67,2.67,0,0,0,138.2,96a1.72,1.72,0,0,0,.6-1.4,1.69,1.69,0,0,0-.6-1.4,2.73,2.73,0,0,0-1.74-.49h-2v3.78Zm13,3.67a6,6,0,0,1-1.84-.28,3.93,3.93,0,0,1-1.38-.77l.45-.94a3.6,3.6,0,0,0,1.22.71,4.55,4.55,0,0,0,1.55.26,2.87,2.87,0,0,0,1.56-.34,1.12,1.12,0,0,0,.51-1,.91.91,0,0,0-.28-.7,2,2,0,0,0-.7-.42c-.27-.09-.66-.2-1.16-.32a11.9,11.9,0,0,1-1.54-.46,2.65,2.65,0,0,1-1-.69,1.93,1.93,0,0,1-.4-1.29,2.19,2.19,0,0,1,.34-1.21,2.42,2.42,0,0,1,1.08-.86,4.3,4.3,0,0,1,1.79-.33,6,6,0,0,1,1.47.19,3.87,3.87,0,0,1,1.23.56l-.39,1a4.48,4.48,0,0,0-2.31-.69,2.65,2.65,0,0,0-1.53.37,1.14,1.14,0,0,0-.51,1,.94.94,0,0,0,.29.71,2,2,0,0,0,.71.42,11.29,11.29,0,0,0,1.16.31,14.13,14.13,0,0,1,1.53.46,2.43,2.43,0,0,1,1,.7,1.81,1.81,0,0,1,.42,1.26,2.17,2.17,0,0,1-.36,1.21,2.4,2.4,0,0,1-1.09.86A4.57,4.57,0,0,1,149.43,100.11Z"/></g></g></svg>