<svg xmlns="http://www.w3.org/2000/svg" viewBox="0 0 536.9 536.88"><defs><style>.a{fill:#fff;}</style></defs><title>skype</title><path class="a" d="M514.53,268.44a241.86,241.86,0,0,0-19.4-95.6q-19.39-45.61-52.43-78.65T364.06,41.76a241.88,241.88,0,0,0-95.61-19.4A257.3,257.3,0,0,0,216,28Q179.66,0,134.23,0,78.66,0,39.33,39.32T0,134.22Q0,179.67,28,216a257.42,257.42,0,0,0-5.59,52.43A241.83,241.83,0,0,0,41.77,364q19.4,45.61,52.43,78.65t78.65,52.43a241.83,241.83,0,0,0,95.6,19.4,257.44,257.44,0,0,0,52.43-5.6q36.35,28,81.79,28,55.57,0,94.9-39.32t39.33-94.89q0-45.45-28-81.8A257.12,257.12,0,0,0,514.53,268.44Zm-116,104.34a90.57,90.57,0,0,1-30.93,32.69,159,159,0,0,1-42.82,18.69,183.15,183.15,0,0,1-48.94,6.47q-59.07,0-101.72-22.9t-42.64-55.05q0-15.74,8.91-26.22T166.73,316a34.38,34.38,0,0,1,18.88,5.6A83,83,0,0,1,201.68,335q7.35,7.86,15.91,15.73t22.72,13.46q14.16,5.59,32,5.59,22.71,0,36.7-8.91t14-22.55q0-14-11.19-21-7.68-4.87-39.14-12.57l-51-12.59a215.07,215.07,0,0,1-36-11.36,117.6,117.6,0,0,1-28-17,66.12,66.12,0,0,1-19.58-26.39q-6.65-15.9-6.64-37.24,0-25.5,11.71-44.91A84.61,84.61,0,0,1,174.25,125,160.69,160.69,0,0,1,216,108.52a195.38,195.38,0,0,1,46.14-5.41,245.23,245.23,0,0,1,63.61,8q30.06,8,49.64,23.59T395,169.52q0,15.72-10,26.91t-26.39,11.18a34.41,34.41,0,0,1-16.78-4.19,66.55,66.55,0,0,1-14-10.15c-4.2-3.94-8.63-7.86-13.28-11.7s-11-7.17-18.88-10a80.44,80.44,0,0,0-26.91-4.19q-50.34,0-50.33,26.91a20.49,20.49,0,0,0,2.62,10.48,29.11,29.11,0,0,0,5.76,7.35c2.1,1.87,5.59,3.72,10.48,5.58a106.06,106.06,0,0,0,12.24,4c3.26.82,8.39,2,15.38,3.67l36.35,8.39q17.11,3.84,30.59,8a196.36,196.36,0,0,1,28.84,11.88,108.71,108.71,0,0,1,25.52,17.13,77,77,0,0,1,16.95,23.94,74.38,74.38,0,0,1,6.81,32Q410,352.35,398.48,372.78Z"/></svg>